<svg version="1.2" baseProfile="tiny-ps" xmlns="http://www.w3.org/2000/svg" viewBox="0 0 1532 368" width="1532" height="368">
	<title>Walmart_logo-svg</title>
	<style>
		tspan { white-space:pre }
		.shp0 { fill: #0071ce } 
		.shp1 { fill: #fcb61a } 
	</style>
	<g id="Layer">
		<path id="Layer" fill-rule="evenodd" class="shp0" d="M888.11 195.55L888.11 252.47C888.11 267.31 888.8 279.52 890.66 291.11C854.12 301.68 847.52 274.01 847.52 274.01L846.54 274.01C836.52 286.67 819.74 294.69 799.89 294.69C767.34 294.69 748.73 271.29 748.73 246.33C748.73 205.47 785.4 185.41 843.41 185.5L843.41 183.18C843.41 173.5 839.05 158.46 812.48 158.49C796.39 158.49 779.36 164.02 768.68 170.72L760.17 141.61C771.77 134.88 793.17 127.2 820.1 127.2C872.59 127.2 888.11 159.26 888.11 195.55ZM844.83 213.89C817.17 213.74 792.92 219.78 792.92 241.76C792.92 256.13 802.42 262.99 814.52 262.99C828.86 262.99 840.38 253.63 843.73 242.46C844.59 239.85 844.83 236.8 844.83 233.87L844.83 213.89Z" />
		<path id="Layer" class="shp0" d="M0 77.82C0 77.82 37.89 232.98 43.91 258.11C51.01 287.49 63.71 298.34 100.38 291.11L124.07 194.9C130.06 171.07 134.13 153.97 137.99 129.68L138.65 129.68C141.33 154.22 145.2 171.07 150.1 194.98C150.1 194.98 159.76 238.69 164.77 261.58C169.65 284.48 183.39 298.93 219.37 291.11L275.74 77.82L230.23 77.82L210.88 170.09C205.76 196.82 201.11 217.87 197.48 242.37L196.83 242.37C193.56 218.14 189.42 197.95 184.09 171.76L164.04 77.82L116.56 77.82L95.17 169.36C89.07 197.31 83.36 219.72 79.78 243.44L79.16 243.44C75.46 221.18 70.45 192.84 65.14 165.94C65.14 165.94 52.43 100.4 47.95 77.82" />
		<path id="Layer" fill-rule="evenodd" class="shp0" d="M402.57 195.55L402.57 252.47C402.57 267.31 403.21 279.52 405.09 291.11C368.58 301.68 361.94 274.01 361.94 274.01L360.93 274.01C350.91 286.67 334.28 294.69 314.24 294.69C281.84 294.69 263.15 271.29 263.15 246.33C263.15 205.47 299.86 185.41 357.87 185.5L357.87 183.18C357.87 173.5 353.51 158.46 326.94 158.49C310.8 158.49 293.78 164.02 283.14 170.72L274.64 141.61C286.24 134.88 307.67 127.2 334.52 127.2C387.01 127.2 402.57 159.26 402.57 195.55ZM359.26 213.89C331.59 213.74 307.35 219.78 307.35 241.76C307.35 256.13 316.88 262.99 328.91 262.99C343.29 262.99 354.81 253.63 358.19 242.46C359.01 239.85 359.26 236.8 359.26 233.87L359.26 213.89Z" />
		<path id="Layer" class="shp0" d="M426.19 77.82L426.19 291.04L469.5 291.04L469.5 245.82L469.5 77.82L426.19 77.82Z" />
		<path id="Layer" class="shp0" d="M1021.05 77.82L1021.05 235.14C1021.05 256.85 1025.12 271.99 1033.88 281.27C1041.58 289.4 1054.17 294.7 1069.16 294.7C1082.04 294.7 1094.63 292.22 1100.58 290.06L1100.06 256.19C1095.61 257.23 1090.52 258.11 1083.54 258.11C1068.75 258.11 1063.87 248.74 1063.87 229.24L1063.87 169.02L1101.59 169.02L1101.59 128.28L1063.87 128.28L1063.87 77.82" />
		<path id="Layer" class="shp0" d="M909.09 130.9L909.09 291.11L953.87 291.11L953.87 209.06C953.87 204.65 954.15 200.83 954.85 197.3C958.19 180 971.31 169.05 990.2 169.05C995.48 169.05 999.06 169.63 1003.04 170.25L1003.04 128.25C999.7 127.65 997.43 127.33 993.32 127.33C976.56 127.33 957.57 137.98 949.56 161.18L948.45 161.18L948.45 130.9" />
		<path id="Layer" class="shp0" d="M494.65 130.9L494.65 291.11L538.29 291.11L538.29 197.08C538.29 192.66 538.77 188.15 540.33 184.08C543.88 174.55 552.68 163.53 566.81 163.53C584.38 163.53 592.67 178.37 592.67 199.78L592.67 291.11L636.2 291.11L636.2 195.95C636.2 191.8 636.78 186.71 638 183.03C641.49 172.22 651.02 163.53 664.2 163.53C681.95 163.53 690.54 178.05 690.54 203.29L690.54 291.11L734.03 291.11L734.03 196.64C734.03 147.02 708.8 127.33 680.17 127.33C667.57 127.33 657.55 130.43 648.54 135.99C640.92 140.67 634.24 147.26 628.26 155.88L627.6 155.88C620.71 138.64 604.53 127.33 583.4 127.33C556.3 127.33 543.99 141.02 536.75 152.6L536.09 152.6L536.09 130.9" />
		<path id="Layer" class="shp1" d="M1335.93 123.71C1344.49 123.71 1351.7 119.24 1352.64 113.49L1361.12 17.32C1361.12 7.8 1349.92 0 1335.93 0C1321.88 0 1310.75 7.8 1310.75 17.32L1319.31 113.49C1320.21 119.24 1327.38 123.71 1335.93 123.71Z" />
		<path id="Layer" class="shp1" d="M1283.89 153.8C1288.13 146.29 1287.88 137.95 1283.31 134.23L1204.11 78.8C1195.87 73.99 1183.54 79.72 1176.48 91.85C1169.45 103.97 1170.87 117.57 1178.94 122.28L1266.62 162.97C1272.23 165.07 1279.57 161.17 1283.89 153.73" />
		<path id="Layer" class="shp1" d="M1387.97 153.72C1392.45 161.16 1399.79 165.07 1405.25 163.08L1492.93 122.28C1501.08 117.47 1502.3 104 1495.41 91.89C1488.37 79.75 1475.97 74.06 1467.75 78.78L1388.53 134.15C1384.14 137.93 1383.82 146.3 1388.06 153.8" />
		<path id="Layer" class="shp1" d="M1335.93 243.84C1344.49 243.84 1351.7 248.31 1352.64 254.06L1361.12 350.23C1361.12 359.76 1349.92 367.48 1335.93 367.48C1321.88 367.48 1310.75 359.76 1310.75 350.23L1319.31 254.06C1320.21 248.31 1327.38 243.84 1335.93 243.84Z" />
		<path id="Layer" class="shp1" d="M1387.97 213.83C1392.45 206.38 1399.79 202.39 1405.25 204.55L1492.93 245.28C1501.08 249.99 1502.3 263.57 1495.41 275.71C1488.37 287.75 1475.97 293.48 1467.75 288.76L1388.53 233.31C1384.14 229.57 1383.82 221.23 1388.06 213.83" />
		<path id="Layer" class="shp1" d="M1283.89 213.75C1288.13 221.24 1287.88 229.57 1283.31 233.32L1204.11 288.68C1195.87 293.49 1183.54 287.74 1176.48 275.7C1169.45 263.58 1170.87 249.98 1178.94 245.27L1266.62 204.55C1272.23 202.4 1279.57 206.35 1283.89 213.75Z" />
		<path id="Layer" fill-rule="evenodd" class="shp1" d="M1531.22 278.97C1531.22 285.02 1526.49 289.83 1520.26 289.83C1514.11 289.83 1509.23 285.02 1509.23 278.97C1509.23 273.07 1514.11 268.26 1520.26 268.26C1526.49 268.26 1531.22 273.07 1531.22 278.97ZM1520.19 270.42C1515.53 270.42 1511.95 274.25 1511.95 278.97C1511.95 283.72 1515.53 287.59 1520.26 287.59C1524.99 287.67 1528.5 283.72 1528.5 278.97C1528.5 274.25 1524.99 270.42 1520.26 270.42L1520.19 270.42ZM1518.59 280.32L1518.59 284.55L1516.1 284.55L1516.1 273.92C1517.13 273.67 1518.42 273.52 1520.19 273.52C1522.18 273.52 1523.08 273.88 1524.02 274.33C1524.5 274.82 1524.99 275.59 1524.99 276.66C1524.99 277.84 1524.17 278.8 1522.74 279.12L1522.74 279.38C1523.77 279.66 1524.5 280.47 1524.82 281.9C1524.99 283.55 1525.31 284.27 1525.55 284.55L1522.74 284.55C1522.42 284.17 1522.25 283.29 1521.93 281.97C1521.76 280.79 1521.16 280.32 1519.68 280.32L1518.59 280.32ZM1518.67 275.47L1518.67 278.57L1519.77 278.57C1521.16 278.57 1522.25 278.07 1522.25 276.98C1522.25 276 1521.44 275.31 1519.94 275.31L1518.67 275.47Z" />
	</g>
	<g id="Layer">
	</g>
	<g id="Layer">
	</g>
	<g id="Layer">
	</g>
	<g id="Layer">
	</g>
	<g id="Layer">
	</g>
	<g id="Layer">
	</g>
</svg>