<svg version="1.2" xmlns="http://www.w3.org/2000/svg" viewBox="0 0 1549 463" width="1549" height="463">
	<title>rakuten-svg</title>
	<style>
		.s0 { fill: #bf0000 } 
	</style>
	<g id="Layer">
		<path id="Layer" class="s0" d="m385 462.2l-74.7-74.7h937.4z"/>
		<path id="Layer" fill-rule="evenodd" class="s0" d="m454.7 86.3v252.3h-58.7v-11.1c-15.9 11.1-33.1 17.2-53.9 17.2-66.1 0-116.2-60-116.2-132.3 0-72.2 51.4-132.2 116.2-132.2 20.8 0 36.7 6.1 53.9 17.2v-11.1zm-56.3 124.9c0-40.6-25.2-73.4-56.3-73.4-31.1 0-56.3 32.8-56.3 73.4 0 40.6 25.2 73.5 56.3 73.5 31.1 0 56.3-32.9 56.3-73.5z"/>
		<path id="Layer" class="s0" d="m918.5 86.3v255.9h-57.5v-8.5c0 0-20.8 14.6-48.9 14.6-61.2 0-102.8-51.4-102.8-112.6v-149.4h57.5v149.4c0 28.2 18.3 52.7 46.5 52.7 28.1 0 46.5-24.5 46.5-52.7v-149.4z"/>
		<path id="Layer" class="s0" d="m1339.5 338.6v-254.7h57.5v8.6c0 0 20.8-14.7 49-14.7 61.2 0 102.8 51.4 102.8 112.6v149.4h-57.5v-149.4c0-28.2-18.4-52.6-46.5-52.6-28.2 0-46.6 24.4-46.6 52.6v149.4z"/>
		<path id="Layer" fill-rule="evenodd" class="s0" d="m60.7 337.3h-60v-317.1h99.1c61.2 0 110.2 50.2 110.2 110.2 0 36.7-18.4 68.6-46.5 89.4l89.3 120h-74.7l-74.6-99.2h-42.8zm0-156.7h39.1c26.9 0 49-20.8 49-49 0-26.9-20.8-49-49-49h-39.1c0 0 0 96.8 0 98z"/>
		<path id="Layer" class="s0" d="m1110.7 331.2c-17.2 11-39.2 17.1-56.3 17.1-42.9 0-85.7-35.5-85.7-91.8v-110.2h-29.4v-60h29.4v-63.6h57.5v63.6h49v60h-49v109c0 24.5 18.4 31.8 28.2 31.8 7.3 0 12.2-2.4 18.3-6.1z"/>
		<path id="Layer" class="s0" d="m714.2 339.8h-82l-84.5-104.1v104.1h-59.9v-339.2h59.9v173.9l69.8-88.2h79.5l-99.1 117.6z"/>
		<path id="Layer" fill-rule="evenodd" class="s0" d="m1317.5 233.3h-166.5c8.6 57.5 73.5 86.9 112.6 29.3l50.2 29.4c-34.3 45.3-73.4 56.3-102.8 56.3-60 0-119.9-56.3-119.9-134.6 0-77.2 46.5-134.7 113.8-134.7 67.3 0 126 60 112.6 154.3zm-165.2-53.9h104c-12.2-63.7-91.8-60-104 0z"/>
	</g>
</svg>