<svg version="1.2" xmlns="http://www.w3.org/2000/svg" viewBox="0 0 1535 729" width="1535" height="729">
	<title>etsy-svg</title>
	<style>
		.s0 { fill: #f1641e } 
	</style>
	<path id="Layer" class="s0" d="m164.8 56.3v206.3c0 0 72.7 0 111.6-3 30.6-5.3 36.2-8.3 41.8-38.9l11.3-44.8h33.2l-5.6 97.9 3 100.3h-33.6l-8.3-39.1c-8.3-27.9-19.6-33.6-41.8-36.2-27.9-3-111.6-3-111.6-3v173c0 33.3 16.9 47.5 55.8 47.5h117.2c36.2 0 72.4-3 95-55.8l30.3-67.1h28.1c-2.9 14-16.9 136.8-19.5 164.5 0 0-106-2.7-150.5-2.7h-201l-119.8 2.7v-30.3l38.9-8.6c28.1-5.7 36.4-14 36.4-36.3 0 0 3-75.3 3-200.9 0-125.2-3-200.6-3-200.6 0-25-8.3-30.6-36.4-36.2l-38.9-8.3v-30.6l117.2 2.4h223.1c44.6 0 119.7-8 119.7-8 0 0-2.7 47.2-5.7 158.8h-30.6l-11.2-39.2c-11-50.1-27.7-75.1-58.5-75.1h-175.4c-14.2 0-14.2 2.7-14.2 11.3zm451.7 22h33.5v117.2l114.5-5.6-5.6 53.1-111.6-8.6v206.6c0 58.4 19.6 81 53.1 81 30.4 0 52.9-16.9 61.2-30.9l16.6 19.6c-16.6 38.9-63.8 58.5-108.6 58.5-55.5 0-100.6-33.3-100.6-97.4v-234.5h-66.6v-27.8c55.9-5.7 97.5-39.2 114.1-131.2zm240 359.7l22.3 53.1c8.3 22.2 27.9 44.8 72.4 44.8 47.5 0 67-25.2 67-55.8 0-95-186.9-67.1-186.9-195.3 0-72.4 58.5-106.2 133.8-106.2 33.6 0 83.7 5.6 108.9 16.9-5.6 27.9-8.6 64.1-8.6 92l-27.6 2.7-19.6-55.8c-5.6-13.7-28.1-25-55.8-25-33.5 0-67 14-67 50.2 0 86.4 192.6 67 192.6 195.3 0 72.7-64.1 111.6-142.4 111.6-58.5 0-117.3-22.6-117.3-22.6 5.7-33.2 3-69.4 0-105.9zm217.6 267.7c8.3-30.6 13.9-69.5 19.5-106l30.6-2.7 11.3 58.5c2.7 14 11 25.2 33.3 25.2 36.2 0 83.7-22.2 128.4-100.3-19.8-47.5-78.3-200.7-131.4-317.9-13.9-30.8-16.6-33.5-35.9-39.1l-14.2-5.4v-28.2l83.9 3 103-5.6v27.9l-25.2 5.6c-19.6 2.7-27.6 13.7-27.6 25 0 2.9 0 5.6 2.6 11.2 5.4 16.9 50.2 142.2 83.7 225.9 27.7-58.5 80.8-189.6 89.1-211.9 3-11.3 5.6-14 5.6-22.3 0-14.2-8.3-22.5-27.6-27.9l-19.8-5.6v-27.9l78.3 2.7 72.4-2.7v27.9l-14 11c-27.8 11.2-30.8 13.9-41.8 36.4l-122.6 287c-72.7 164.7-148 178.7-200.9 178.7-33.5 0-58.7-8.6-80.7-22.5z"/>
</svg>