<?xml version="1.0" encoding="utf-8"?>
<!-- Generator: Adobe Illustrator 25.4.1, SVG Export Plug-In . SVG Version: 6.00 Build 0)  -->
<svg version="1.1"
	 id="svg8" xmlns:cc="http://creativecommons.org/ns#" xmlns:dc="http://purl.org/dc/elements/1.1/" xmlns:inkscape="http://www.inkscape.org/namespaces/inkscape" xmlns:rdf="http://www.w3.org/1999/02/22-rdf-syntax-ns#" xmlns:sodipodi="http://sodipodi.sourceforge.net/DTD/sodipodi-0.dtd" xmlns:svg="http://www.w3.org/2000/svg"
	 xmlns="http://www.w3.org/2000/svg" xmlns:xlink="http://www.w3.org/1999/xlink" x="0px" y="0px" viewBox="0 0 158.9 37.9"
	 style="enable-background:new 0 0 158.9 37.9;" xml:space="preserve">
<style type="text/css">
	.st0{fill:#E43225;}
</style>
<g id="g32">
	<path id="path12" inkscape:connector-curvature="0" class="st0" d="M40.7,28.2V3h14.9v3.1H43.8v7.8h10.6V17H43.8v7.9h12.6v3.2
		L40.7,28.2L40.7,28.2z"/>
	<path id="path14" inkscape:connector-curvature="0" class="st0" d="M72,28.2l-5.1-6.7l-5.1,6.7h-3.6l7-8.9l-7.4-9.2h4l5,6.9
		l5.1-6.9h4l-7,9.2l6.6,8.9C75.5,28.2,72,28.2,72,28.2z"/>
	<path id="path16" inkscape:connector-curvature="0" class="st0" d="M80.6,25.5v12.4h-3.1V19.3c0-4.7,3.6-9.8,9.2-9.8
		c5.7,0,10,3.6,10,9.5c0,5.8-4.3,9.8-9.3,9.8C85,28.9,81.7,27.8,80.6,25.5L80.6,25.5z M93.5,19.1c0-4-2.6-6.5-7.3-6.2
		c-2.2,0.1-5.7,1.7-5.4,7.5c0.1,1.9,2,5.4,6.3,5.4C90.8,25.8,93.5,23.7,93.5,19.1z"/>
	<path id="path18" inkscape:connector-curvature="0" class="st0" d="M99.3,28.2V10h3.1v2c1.5-1.7,3.8-2.3,6.3-2.3v3.2
		c-0.4-0.1-4-0.5-6.3,4.3v11H99.3L99.3,28.2z"/>
	<path id="path20" inkscape:connector-curvature="0" class="st0" d="M109.5,19.1c0-5.2,3.8-9.5,8.9-9.5c6.5,0,8.8,4.3,8.8,9.8v1.5
		h-14.4c0.2,3.5,3.3,5.2,6.2,5.2c2.1-0.1,3.5-0.7,5-2.2l2,2.1c-1.9,1.8-4.3,3-7.2,3C113.4,28.8,109.5,24.8,109.5,19.1L109.5,19.1z
		 M118.2,12.6c-2.9,0-5.2,2.5-5.3,5.3h11.2C124.1,15.3,122.1,12.6,118.2,12.6z"/>
	<path id="path22" inkscape:connector-curvature="0" class="st0" d="M128.9,25.6l2.2-2c-0.1,0,1.1,1.2,1.3,1.3
		c0.5,0.5,1,0.8,1.7,0.9c1.9,0.5,5.5,0.4,5.8-2.3c0.2-1.5-1-2.3-2.2-2.9c-1.7-0.6-3.5-0.8-5.1-1.6c-1.9-0.8-3.1-2.2-3.1-4.4
		c0-5.5,7.8-6.4,11.3-3.8c0.2,0.1,1.9,1.7,1.8,1.7l-2.2,1.8c-1.1-1.4-2.2-2-4.6-2c-1.2,0-2.8,0.5-3.2,1.8c-0.5,1.8,1.6,2.5,2.9,2.9
		c1.8,0.5,3.8,0.8,5.3,1.7c2.2,1.4,2.7,4.3,1.9,6.5c-0.9,2.5-3.6,3.5-6,3.5c-2.8,0.2-5.3-0.8-7.3-2.8
		C129.2,26,128.9,25.6,128.9,25.6z"/>
	<path id="path24" inkscape:connector-curvature="0" class="st0" d="M144.7,25.6l2.2-2c-0.1,0,1.1,1.2,1.3,1.3
		c0.5,0.5,1.1,0.8,1.7,0.9c2,0.5,5.5,0.4,5.8-2.3c0.2-1.5-1-2.3-2.2-2.9c-1.7-0.6-3.4-0.8-5.1-1.6c-1.9-0.8-3.1-2.2-3.1-4.4
		c0-5.5,7.8-6.4,11.3-3.8c0.2,0.1,1.9,1.7,1.8,1.7l-2.2,1.8c-1.1-1.4-2.2-2-4.6-2c-1.2,0-2.8,0.5-3.2,1.8c-0.4,1.8,1.6,2.5,2.9,2.9
		c1.8,0.5,3.7,0.8,5.3,1.7c2.2,1.4,2.7,4.3,1.9,6.5c-0.9,2.5-3.6,3.5-6,3.5c-2.8,0.2-5.3-0.8-7.3-2.8
		C145.1,26,144.7,25.6,144.7,25.6z"/>
</g>
<g id="g41">
	<path id="path34" inkscape:connector-curvature="0" class="st0" d="M19.9,28.2l-2.2-6H5.5l-2.2,6H0L9.8,3h3.5L23,28.1L19.9,28.2
		L19.9,28.2z M11.4,6.6L6.8,19.1h9.5L11.4,6.6z"/>
	<path id="path36" inkscape:connector-curvature="0" class="st0" d="M25,28.2V3h3.1v25.1L25,28.2L25,28.2z"/>
	<path id="path38" inkscape:connector-curvature="0" class="st0" d="M32.9,28.2V10.4H36v17.8H32.9z"/>
	<path id="XMLID_1_" inkscape:connector-curvature="0" class="st0" d="M39,4.6C39,4.5,39,4.5,39,4.6c0-0.2,0-0.2,0-0.2
		c-2.4-0.1-4.4-2-4.4-4.4c-0.1,0-0.1,0-0.2,0s-0.1,0-0.2,0c-0.1,2.4-2,4.4-4.4,4.4c0,0.1,0,0.1,0,0.1c0,0.1,0,0.1,0,0.1
		c2.4,0.1,4.4,2,4.4,4.4c0.1,0,0.1,0,0.2,0s0.1,0,0.2,0C34.7,6.6,36.6,4.7,39,4.6z"/>
</g>
</svg>
